<svg xmlns="http://www.w3.org/2000/svg" width="48" height="48" viewBox="0 0 48 48" fill="none">
  <!-- Open book shape -->
  <path d="M6 36L24 42L42 36V12L24 6L6 12V36Z" fill="none" stroke="#1B2A4A" stroke-width="2" stroke-linejoin="round"/>
  <path d="M24 6V42" stroke="#1B2A4A" stroke-width="1.5"/>
  <!-- Knowledge graph nodes and edges -->
  <circle cx="24" cy="18" r="2.5" fill="#4361EE"/>
  <circle cx="14" cy="24" r="1.5" fill="#4361EE" opacity="0.7"/>
  <circle cx="34" cy="24" r="1.5" fill="#4361EE" opacity="0.7"/>
  <circle cx="16" cy="14" r="1.5" fill="#4361EE" opacity="0.5"/>
  <circle cx="32" cy="14" r="1.5" fill="#4361EE" opacity="0.5"/>
  <circle cx="18" cy="32" r="1.5" fill="#4361EE" opacity="0.5"/>
  <circle cx="30" cy="32" r="1.5" fill="#4361EE" opacity="0.5"/>
  <!-- Graph edges -->
  <line x1="24" y1="18" x2="14" y2="24" stroke="#4361EE" stroke-width="0.8" opacity="0.4"/>
  <line x1="24" y1="18" x2="34" y2="24" stroke="#4361EE" stroke-width="0.8" opacity="0.4"/>
  <line x1="24" y1="18" x2="16" y2="14" stroke="#4361EE" stroke-width="0.8" opacity="0.4"/>
  <line x1="24" y1="18" x2="32" y2="14" stroke="#4361EE" stroke-width="0.8" opacity="0.4"/>
  <line x1="14" y1="24" x2="18" y2="32" stroke="#4361EE" stroke-width="0.8" opacity="0.3"/>
  <line x1="34" y1="24" x2="30" y2="32" stroke="#4361EE" stroke-width="0.8" opacity="0.3"/>
  <line x1="16" y1="14" x2="14" y2="24" stroke="#4361EE" stroke-width="0.8" opacity="0.3"/>
  <line x1="32" y1="14" x2="34" y2="24" stroke="#4361EE" stroke-width="0.8" opacity="0.3"/>
  <!-- K letter -->
  <text x="24" y="27" text-anchor="middle" font-family="serif" font-size="12" font-weight="bold" fill="#1B2A4A">K</text>
</svg>
